<?xml version="1.0" standalone="no"?>
<!DOCTYPE svg PUBLIC "-//W3C//DTD SVG 20010904//EN"
 "http://www.w3.org/TR/2001/REC-SVG-20010904/DTD/svg10.dtd">
<svg version="1.0" xmlns="http://www.w3.org/2000/svg"
 width="260.000000pt" height="260.000000pt" viewBox="0 0 260.000000 260.000000"
 preserveAspectRatio="xMidYMid meet">
<metadata>
Created by potrace 1.14, written by Peter Selinger 2001-2017
</metadata>
<g transform="translate(0.000000,260.000000) scale(0.100000,-0.100000)"
fill="#000000" stroke="none">
<path d="M1132 2590 c-549 -78 -984 -480 -1103 -1020 -31 -138 -33 -389 -5
-520 55 -253 163 -462 333 -641 188 -197 409 -322 673 -380 138 -31 389 -33
520 -5 253 55 462 163 641 333 197 188 322 409 380 673 31 138 33 389 5 520
-55 253 -163 462 -333 641 -184 193 -399 317 -653 375 -118 28 -348 40 -458
24z m400 -625 c79 -27 178 -85 212 -123 18 -21 18 -22 -58 -116 l-76 -95 -49
34 c-71 47 -143 69 -226 70 -84 0 -138 -23 -161 -68 -17 -33 -14 -88 7 -114
18 -21 106 -64 263 -127 154 -62 218 -99 272 -158 63 -70 79 -118 79 -238 0
-97 -2 -110 -32 -172 -56 -119 -182 -210 -330 -239 -79 -15 -257 -7 -338 15
-86 24 -194 80 -248 129 l-46 42 85 102 86 102 46 -33 c109 -77 214 -112 316
-104 106 9 156 52 156 134 0 57 -44 90 -216 163 -211 90 -255 114 -311 168
-152 149 -145 387 15 534 61 56 150 102 228 118 85 17 239 6 326 -24z"/>
</g>
</svg>
