<svg viewBox="0 0 20 20" fill="none" xmlns="http://www.w3.org/2000/svg">
<path d="M10 0C15.5242 0 20 4.47581 20 10C20 15.5242 15.5242 20 10 20C4.47581 20 0 15.5242 0 10C0 4.47581 4.47581 0 10 0ZM14.5927 9.31452L9.12903 3.85081C8.75 3.47177 8.1371 3.47177 7.7621 3.85081L7.07661 4.53629C6.69758 4.91532 6.69758 5.52823 7.07661 5.90323L11.1734 10L7.07661 14.0968C6.69758 14.4758 6.69758 15.0887 7.07661 15.4637L7.7621 16.1492C8.14113 16.5282 8.75403 16.5282 9.12903 16.1492L14.5927 10.6855C14.9718 10.3065 14.9718 9.69355 14.5927 9.31452Z" fill="#EF0125"/>
</svg>
